<svg width="72" height="72" viewBox="0 0 72 72" fill="none" xmlns="http://www.w3.org/2000/svg">
  <g filter="url(#filter0_d_0_1)">
    <rect x="2" y="2" width="64" height="64" rx="16" fill="url(#paint0_linear_0_1)"/>
    <rect x="2.25" y="2.25" width="63.5" height="63.5" rx="15.75" stroke="url(#paint1_linear_0_1)" stroke-width="0.5"/>
  </g>
  <path d="M16.445 51.252L9.66867 25.9623L12.5829 25.1814L15.0843 34.5168L15.3313 34.4507C15.4571 34.064 15.641 33.5648 15.8829 32.9529C16.1309 32.3306 16.5589 31.7218 17.167 31.1265C17.7812 30.5208 18.7057 30.0525 19.9405 29.7216C21.5376 29.2936 23.0523 29.3157 24.4847 29.7878C25.917 30.2599 27.1711 31.137 28.2471 32.4193C29.323 33.7016 30.1279 35.3388 30.6617 37.331C31.1999 39.3397 31.3248 41.1724 31.0364 42.8291C30.7457 44.4775 30.1034 45.8672 29.1094 46.9983C28.1132 48.1211 26.8248 48.8942 25.2442 49.3177C24.0259 49.6442 22.9963 49.7039 22.1555 49.4968C21.3125 49.2815 20.624 48.9675 20.0899 48.5548C19.5536 48.1338 19.1321 47.7791 18.8254 47.4907L18.4796 47.5833L19.2605 50.4976L16.445 51.252ZM16.7687 41.0007C17.1526 42.4331 17.7011 43.6405 18.4143 44.6229C19.1253 45.5971 19.9669 46.2848 20.9391 46.6861C21.9091 47.0791 22.9786 47.119 24.1476 46.8057C25.366 46.4793 26.2967 45.8858 26.9396 45.0253C27.5886 44.1543 27.9722 43.1163 28.0904 41.9111C28.2147 40.6955 28.096 39.4126 27.7342 38.0625C27.3768 36.7289 26.849 35.5821 26.1506 34.6222C25.4583 33.6518 24.6166 32.9641 23.6258 32.559C22.6409 32.1435 21.5311 32.1012 20.2962 32.4321C19.1108 32.7497 18.1952 33.3171 17.5494 34.1343C16.9015 34.9432 16.5151 35.9379 16.3902 37.1184C16.2632 38.2906 16.3893 39.5847 16.7687 41.0007ZM53.7341 22.6254L50.6717 23.446C50.2545 22.6137 49.7302 21.9247 49.0988 21.3792C48.4756 20.8315 47.7822 20.4173 47.0188 20.1366C46.2614 19.8454 45.4649 19.6883 44.6293 19.6651C43.7937 19.642 42.956 19.7429 42.1163 19.9679C40.5851 20.3782 39.3016 21.1368 38.2659 22.2437C37.2384 23.3484 36.5601 24.7522 36.2311 26.455C35.9104 28.1557 36.0433 30.1009 36.6301 32.2907C37.2169 34.4805 38.0743 36.2316 39.2024 37.544C40.3388 38.8542 41.628 39.7307 43.0702 40.1737C44.5207 40.6145 46.0115 40.6297 47.5427 40.2194C48.3824 39.9944 49.1583 39.663 49.8703 39.2251C50.5824 38.7873 51.1947 38.257 51.7073 37.6344C52.2259 37.0013 52.6181 36.2918 52.884 35.5059C53.1559 34.7095 53.2655 33.8508 53.2128 32.9296L56.2752 32.109C56.391 33.4633 56.2811 34.7324 55.9454 35.9165C55.6098 37.1005 55.0851 38.172 54.3715 39.1308C53.6556 40.0814 52.7834 40.8931 51.7548 41.5657C50.7345 42.2362 49.5863 42.7423 48.3103 43.0843C46.1535 43.6622 44.0941 43.6493 42.1324 43.0455C40.1707 42.4418 38.4479 41.2975 36.9641 39.6128C35.4804 37.9281 34.3812 35.752 33.6665 33.0848C32.9518 30.4175 32.8157 27.9834 33.2583 25.7825C33.7009 23.5816 34.6208 21.7293 36.0178 20.2255C37.4148 18.7218 39.1918 17.681 41.3487 17.103C42.6247 16.7611 43.8721 16.6254 45.091 16.6959C46.3181 16.7641 47.4803 17.035 48.5778 17.5086C49.6731 17.9739 50.6621 18.6354 51.5448 19.493C52.4253 20.3423 53.1551 21.3865 53.7341 22.6254Z" fill="black"/>
  <defs>
    <filter id="filter0_d_0_1" x="0" y="0" width="72" height="72" filterUnits="userSpaceOnUse" color-interpolation-filters="sRGB">
      <feFlood flood-opacity="0" result="BackgroundImageFix"/>
      <feColorMatrix in="SourceAlpha" type="matrix" values="0 0 0 0 0 0 0 0 0 0 0 0 0 0 0 0 0 0 127 0" result="hardAlpha"/>
      <feOffset dx="2" dy="2"/>
      <feGaussianBlur stdDeviation="2"/>
      <feComposite in2="hardAlpha" operator="out"/>
      <feColorMatrix type="matrix" values="0 0 0 0 0 0 0 0 0 0 0 0 0 0 0 0 0 0 0.25 0"/>
      <feBlend mode="normal" in2="BackgroundImageFix" result="effect1_dropShadow_0_1"/>
      <feBlend mode="normal" in="SourceGraphic" in2="effect1_dropShadow_0_1" result="shape"/>
    </filter>
    <linearGradient id="paint0_linear_0_1" x1="2" y1="2" x2="66" y2="66" gradientUnits="userSpaceOnUse">
      <stop stop-color="white"/>
      <stop offset="1" stop-color="#F1F1F1"/>
    </linearGradient>
    <linearGradient id="paint1_linear_0_1" x1="2" y1="2" x2="66" y2="66" gradientUnits="userSpaceOnUse">
      <stop stop-color="#1F1F1F"/>
      <stop offset="1"/>
    </linearGradient>
  </defs>
</svg>
