<svg width="64" height="64" viewBox="0 0 64 64" fill="none" xmlns="http://www.w3.org/2000/svg">
<rect x="0.25" y="0.25" width="63.5" height="63.5" rx="15.75" fill="white" stroke="#1F1F1F" stroke-width="0.5"/>
<path d="M14.445 49.252L7.66867 23.9623L10.5829 23.1814L13.0843 32.5168L13.3313 32.4507C13.4571 32.064 13.641 31.5648 13.8829 30.9529C14.1309 30.3306 14.5589 29.7218 15.167 29.1265C15.7812 28.5208 16.7057 28.0525 17.9405 27.7216C19.5376 27.2936 21.0523 27.3157 22.4847 27.7878C23.917 28.2599 25.1711 29.137 26.2471 30.4193C27.323 31.7016 28.1279 33.3388 28.6617 35.331C29.1999 37.3397 29.3248 39.1724 29.0364 40.8291C28.7457 42.4775 28.1034 43.8672 27.1094 44.9983C26.1132 46.1211 24.8248 46.8942 23.2442 47.3177C22.0259 47.6442 20.9963 47.7039 20.1555 47.4968C19.3125 47.2815 18.624 46.9675 18.0899 46.5548C17.5536 46.1338 17.1321 45.7791 16.8254 45.4907L16.4796 45.5833L17.2605 48.4976L14.445 49.252ZM14.7687 39.0007C15.1526 40.4331 15.7011 41.6405 16.4143 42.6229C17.1253 43.5971 17.9669 44.2848 18.9391 44.6861C19.9091 45.0791 20.9786 45.119 22.1476 44.8057C23.366 44.4793 24.2967 43.8858 24.9396 43.0253C25.5886 42.1543 25.9722 41.1163 26.0904 39.9111C26.2147 38.6955 26.096 37.4126 25.7342 36.0625C25.3768 34.7289 24.849 33.5821 24.1506 32.6222C23.4583 31.6518 22.6166 30.9641 21.6258 30.559C20.6409 30.1435 19.5311 30.1012 18.2962 30.4321C17.1108 30.7497 16.1952 31.3171 15.5494 32.1343C14.9015 32.9432 14.5151 33.9379 14.3902 35.1184C14.2632 36.2906 14.3893 37.5847 14.7687 39.0007ZM51.7341 20.6254L48.6717 21.446C48.2545 20.6137 47.7302 19.9247 47.0988 19.3792C46.4756 18.8315 45.7822 18.4173 45.0188 18.1366C44.2614 17.8454 43.4649 17.6883 42.6293 17.6651C41.7937 17.642 40.956 17.7429 40.1163 17.9679C38.5851 18.3782 37.3016 19.1368 36.2659 20.2437C35.2384 21.3484 34.5601 22.7522 34.2311 24.455C33.9104 26.1557 34.0433 28.1009 34.6301 30.2907C35.2169 32.4805 36.0743 34.2316 37.2024 35.544C38.3388 36.8542 39.628 37.7307 41.0702 38.1737C42.5207 38.6145 44.0115 38.6297 45.5427 38.2194C46.3824 37.9944 47.1583 37.663 47.8703 37.2251C48.5824 36.7873 49.1947 36.257 49.7073 35.6344C50.2259 35.0013 50.6181 34.2918 50.884 33.5059C51.1559 32.7095 51.2655 31.8508 51.2128 30.9296L54.2752 30.109C54.391 31.4633 54.2811 32.7324 53.9454 33.9165C53.6098 35.1005 53.0851 36.172 52.3715 37.1308C51.6556 38.0814 50.7834 38.8931 49.7548 39.5657C48.7345 40.2362 47.5863 40.7423 46.3103 41.0843C44.1535 41.6622 42.0941 41.6493 40.1324 41.0455C38.1707 40.4418 36.4479 39.2975 34.9641 37.6128C33.4804 35.9281 32.3812 33.752 31.6665 31.0848C30.9518 28.4175 30.8157 25.9834 31.2583 23.7825C31.7009 21.5816 32.6208 19.7293 34.0178 18.2255C35.4148 16.7218 37.1918 15.681 39.3487 15.103C40.6247 14.7611 41.8721 14.6254 43.091 14.6959C44.3181 14.7641 45.4803 15.035 46.5778 15.5086C47.6731 15.9739 48.6621 16.6354 49.5448 17.493C50.4253 18.3423 51.1551 19.3865 51.7341 20.6254Z" fill="black"/>
</svg>
